<?xml version="1.0" encoding="utf-8" ?><svg xmlns="http://www.w3.org/2000/svg" xmlns:xlink="http://www.w3.org/1999/xlink" width="1024" height="1024" viewBox="0 0 1024 1024"><path fill="#161723" d="M0 0L1024 0L1024 1024L0 1024L0 0Z"/><path fill="#4C8ADC" d="M731.981 262.005L778.034 262.022C778.071 271.462 777.964 281.21 778.206 290.612L778.3 292.485L805.029 292.517L805.116 731.517L778.506 731.544C778.062 740.919 778.972 753.311 778.172 761.997L732.06 762.049L732.022 731.617C721.644 731.485 711.265 731.468 700.886 731.566C700.879 738.812 701.016 746.555 700.846 753.757L700.903 762.019L548.761 762.048C548.656 752.176 548.837 741.852 548.883 731.949L548.648 731.719C541.06 731.178 529.169 731.545 521.262 731.542C521.089 713.427 520.741 481.087 521.813 478.416C527.032 477.74 542.545 478.119 548.527 478.129C548.528 470.923 548.097 455.704 548.847 448.957L701.747 448.88C701.661 458.496 701.625 468.112 701.639 477.728C707.88 478.438 724.441 477.963 731.648 477.938L731.642 447.563L703.025 447.559L703.099 292.673C708.312 292.097 726.293 292.452 731.996 292.585L731.981 262.005Z"/><path fill="#A17BEF" d="M778.3 292.485L805.029 292.517L805.116 731.517L778.506 731.544C778.034 708.36 778.515 683.345 778.515 659.981L778.549 507.574L778.504 356.132C778.512 335.585 777.853 312.672 778.3 292.485Z"/><path fill="#63D1F2" d="M521.262 731.542C521.089 713.427 520.741 481.087 521.813 478.416C529.771 478.875 540.626 478.678 548.735 478.568L548.733 651.651C548.815 670.743 548.792 689.836 548.664 708.928C548.634 714.552 549.028 726.726 548.648 731.719C541.06 731.178 529.169 731.545 521.262 731.542Z"/><path fill="#A17BEF" d="M548.883 731.949L645.223 731.967C663.438 731.959 682.431 732.216 700.598 731.792C700.573 737.376 700.259 748.68 700.846 753.757L700.903 762.019L548.761 762.048C548.656 752.176 548.837 741.852 548.883 731.949Z"/><path fill="#63D1F2" d="M703.099 292.673C712.602 293.271 722.452 292.658 731.97 292.873L731.522 396.316C731.502 412.3 730.985 431.885 731.642 447.563L703.025 447.559L703.099 292.673Z"/><path fill="#63D1F2" d="M548.847 448.957L701.747 448.88C701.661 458.496 701.625 468.112 701.639 477.728C694.723 477.127 682.836 477.499 675.446 477.491L624.691 477.454L575.724 477.502C568.608 477.513 555.824 477.182 549.021 477.882C549.067 469.147 549.436 457.439 548.847 448.957Z"/><path fill="#63D1F2" d="M731.981 262.005L778.034 262.022C778.071 271.462 777.964 281.21 778.206 290.612C778.161 290.804 777.878 292.489 777.485 292.515C765.715 293.301 753.793 292.774 741.988 292.91C738.835 292.944 735.09 292.992 731.996 292.585L731.981 262.005Z"/><path fill="#A17BEF" d="M732.022 731.617C736.226 732.096 743.971 731.91 748.391 731.912C758.296 731.977 768.202 731.926 778.106 731.757C777.994 740.037 777.637 753.971 778.172 761.997L732.06 762.049L732.022 731.617Z"/><path fill="#161723" d="M589.433 523.367L619.189 523.426C619.167 532.322 618.808 543.959 619.346 552.639C619.683 543.197 619.491 533.002 619.48 523.504C645.935 524.126 674.106 523.674 700.658 523.534L731.731 523.459C731.706 533.691 731.803 544.257 731.636 554.462L731.47 620.987C731.463 629.446 730.936 647.561 731.668 655.092C732.116 664.765 731.81 675.946 731.745 685.742C724.545 685.815 708.613 686.34 702.04 685.625C693.276 684.878 676.877 685.335 667.51 685.384C651.847 685.466 634.81 685.046 619.343 685.641C613.365 686.305 596.38 685.861 589.699 685.853C589.812 676.43 589.199 664.784 589.847 655.567C590.066 650.634 590.134 644.882 589.979 639.946C589.098 611.888 591.277 582.294 589.691 554.394C589.035 549.847 589.421 529.15 589.433 523.367Z"/><path fill="#63D1F2" d="M703.089 554.44L731.636 554.462L731.47 620.987C731.463 629.446 730.936 647.561 731.668 655.092L703.005 655.234L703.089 554.44Z"/><path fill="#A17BEF" d="M589.691 554.394L617.514 554.421L617.499 655.514L589.847 655.567C590.066 650.634 590.134 644.882 589.979 639.946C589.098 611.888 591.277 582.294 589.691 554.394Z"/><path fill="#63D1F2" d="M619.227 656.41C646.318 656.526 675.214 656.018 702.068 656.676L702.04 685.625C693.276 684.878 676.877 685.335 667.51 685.384C651.847 685.466 634.81 685.046 619.343 685.641C619.343 676.023 619.487 665.995 619.227 656.41Z"/><path fill="#A17BEF" d="M619.48 523.504C645.935 524.126 674.106 523.674 700.658 523.534L700.719 553.021C692.688 553.019 621.27 553.446 619.346 552.639C619.683 543.197 619.491 533.002 619.48 523.504Z"/><path fill="#4C8ADC" d="M247.475 261.949C261.881 261.775 277.54 261.761 291.946 261.967L292.001 292.606C298.725 292.598 306.63 292.384 313.256 292.628C315.453 292.646 317.752 292.627 319.939 292.702L320.015 447.515L291.895 447.562C291.658 457.72 291.914 467.905 291.672 477.992C298.308 478.012 317.241 478.481 322.978 477.797L322.986 448.975C359.139 449.018 396.544 448.508 432.601 448.979L432.622 477.889C434.288 478.873 468.83 478.419 473.153 478.455C473.203 491.691 473.374 505.134 473.267 518.352L496.27 518.371C496.687 526.697 496.428 536.622 496.416 545.037L496.39 589.764L496.466 733.119C492.461 733.13 476.168 733.341 473.337 732.67L472.719 732.635C472.103 740.073 472.506 754.035 472.513 762.025L430.454 762.052C430.353 752.425 430.156 741.558 430.354 732.025L430.209 731.759C423.798 731.104 409.465 731.519 402.521 731.521L402.478 554.506L430.299 554.514L430.207 523.424C424.577 523.409 405.68 523.035 400.772 523.675L400.261 524.375C400.072 533.786 400.267 543.586 400.327 553.025C374.474 553.341 347.928 552.98 321.994 553.004L321.972 523.526L291.895 523.515L291.871 554.052C297.785 554.045 315.092 553.664 320.033 554.256L319.994 731.519C311.016 731.533 301.204 731.345 292.297 731.612L292.021 731.882C291.674 741.382 291.892 752.455 291.948 762.019L247.51 762.062C247.421 752.124 247.672 741.733 247.447 731.865L247.207 731.627C239.181 731.217 228.289 731.535 220.041 731.521L220.015 292.696C223.83 292.092 242.632 292.519 247.475 292.605L247.475 261.949Z"/><path fill="#63D1F2" d="M220.015 292.696C228.913 293.258 238.579 292.855 247.564 292.978L248.003 633.272C247.996 643.28 248.459 728.751 247.207 731.627C239.181 731.217 228.289 731.535 220.041 731.521L220.015 292.696Z"/><path fill="#A17BEF" d="M291.937 554.319C301.302 554.421 310.668 554.4 320.033 554.256L319.994 731.519C311.016 731.533 301.204 731.345 292.297 731.612C291.134 728.119 291.953 692.396 291.953 687.019L291.937 554.319Z"/><path fill="#63D1F2" d="M402.478 554.506L430.299 554.514C429.793 613.594 429.763 672.678 430.209 731.759C423.798 731.104 409.465 731.519 402.521 731.521L402.478 554.506Z"/><path fill="#A17BEF" d="M473.267 518.352L496.27 518.371C496.687 526.697 496.428 536.622 496.416 545.037L496.39 589.764L496.466 733.119C492.461 733.13 476.168 733.341 473.337 732.67C474.319 725.739 473.918 711.203 473.904 703.662L473.837 653.394L473.799 563.374C473.731 549.73 474.083 531.79 473.267 518.352Z"/><path fill="#A17BEF" d="M313.256 292.628C315.453 292.646 317.752 292.627 319.939 292.702L320.015 447.515L291.895 447.562L292.026 292.884C298.505 292.925 306.941 293.139 313.256 292.628Z"/><path fill="#63D1F2" d="M322.986 448.975C359.139 449.018 396.544 448.508 432.601 448.979L432.622 477.889C429.854 477.384 421.815 477.503 418.685 477.493L391.334 477.482L348.156 477.517C340.48 477.529 330.489 477.27 322.978 477.797L322.986 448.975Z"/><path fill="#A17BEF" d="M321.972 523.526C331.302 523.7 396.296 522.673 399.892 523.919L400.261 524.375C400.072 533.786 400.267 543.586 400.327 553.025C374.474 553.341 347.928 552.98 321.994 553.004L321.972 523.526Z"/><path fill="#63D1F2" d="M247.475 261.949C261.881 261.775 277.54 261.761 291.946 261.967L292.001 292.606C280.202 292.994 268.382 292.66 256.578 292.816C253.539 292.856 250.505 292.867 247.475 292.605L247.475 261.949Z"/><path fill="#A17BEF" d="M247.447 731.865C259.228 731.552 271.274 732.186 283.087 731.803C286.057 731.706 289.055 731.711 292.021 731.882C291.674 741.382 291.892 752.455 291.948 762.019L247.51 762.062C247.421 752.124 247.672 741.733 247.447 731.865Z"/><path fill="#A17BEF" d="M430.354 732.025C434.951 731.719 471.111 731.558 472.719 732.635C472.103 740.073 472.506 754.035 472.513 762.025L430.454 762.052C430.353 752.425 430.156 741.558 430.354 732.025Z"/></svg>